# xmcd CD database file
#
# Track frame offsets:
#	183
#	28295
#	51320
#	71570
#	95608
#	125858
#	158845
#	181370
#	205795
#	240845
#	263658
#	272970
#	296145
#
# Disc length: 4311 seconds
#
# Revision: 4
# Processed by: cddbd v1.5.2PL0 Copyright (c) Steve Scherf et al.
# Submitted via: CDex 1.70beta2
#
DISCID=c710d50d
DTITLE=AA.VV. - N. A. 61 - Perla
DYEAR=1900
DGENRE=New Age
TTITLE0=Philip Riley - Just breathe
TTITLE1=Spencer Brewer and P. McCandless - Valentine be mine
TTITLE2=Robert Rich and S. Roach - Fearless
TTITLE3=Paul Winter Consort - Suit from the man who planted trees
TTITLE4=Lorellei - Moon Azure
TTITLE5=Philip Glass - Facades
TTITLE6=Rahmlee - Gemini
TTITLE7=Checkfield and D. Smith - Somewhere
TTITLE8=Cecilia Chailly - Small steps to the moon
TTITLE9=James Asher - Red rhythm dragon
TTITLE10=Michael Conn - The scream
TTITLE11=Michael Jones - Evening
TTITLE12=Troika - Venus
EXTD=
EXTT0=
EXTT1=
EXTT2=
EXTT3=
EXTT4=
EXTT5=
EXTT6=
EXTT7=
EXTT8=
EXTT9=
EXTT10=
EXTT11=
EXTT12=
PLAYORDER=
